<?xml version="1.0" encoding="UTF-8"?>
<svg width="416px" height="200px" viewBox="0 0 416 200" version="1.1" xmlns="http://www.w3.org/2000/svg" xmlns:xlink="http://www.w3.org/1999/xlink">
    <!-- Generator: sketchtool 63.1 (101010) - https://sketch.com -->
    <title>950DDF56-17C8-486F-8747-0CF2BE953278</title>
    <desc>Created with sketchtool.</desc>
    <g id="01.-catalog---Desktop" stroke="none" stroke-width="1" fill="none" fill-rule="evenodd">
        <g id="Case-Study---catalog---Desktop" transform="translate(-493.000000, -5871.000000)">
            <g id="::-Visual-Design-::" transform="translate(0.000000, 5320.000000)">
                <g id="UI-Elements" transform="translate(124.000000, 493.000000)">
                    <g id="Row_01" transform="translate(369.000000, 0.000000)">
                        <g id="Colors" transform="translate(0.000000, 2.000000)">
                            <g id="color-Pallette" transform="translate(0.000000, 56.000000)">
                                <g id="01">
                                    <rect id="Rectangle" fill="#8776D0" x="9.23705556e-14" y="3.62376795e-13" width="68.8" height="59.2" rx="27"></rect>
                                    <rect id="Rectangle-Copy" fill="#9C8DDB" x="34.4" y="3.62376795e-13" width="68.8" height="59.2" rx="27"></rect>
                                    <rect id="Rectangle-Copy" fill="#B2A7E2" x="66.4" y="3.62376795e-13" width="68.8" height="59.2" rx="27"></rect>
                                    <rect id="Rectangle-Copy" fill="#C8BDF7" x="98.4" y="3.62376795e-13" width="68.8" height="59.2" rx="27"></rect>
                                    <rect id="Rectangle-Copy" fill="#F5ECFC" x="130.4" y="3.62376795e-13" width="68.8" height="59.2" rx="27"></rect>
                                </g>
                                <g id="02" transform="translate(220.000000, 0.000000)">
                                    <rect id="Rectangle" fill="#F26565" x="8.52651283e-14" y="0.8" width="68.8" height="59.2" rx="27"></rect>
                                    <rect id="Rectangle" fill="#F3A8A8" x="28" y="3.62376795e-13" width="68.8" height="59.2" rx="27"></rect>
                                    <rect id="Rectangle-Copy" fill="#FBBDBD" x="62.4" y="3.62376795e-13" width="68.8" height="59.2" rx="27"></rect>
                                    <rect id="Rectangle-Copy" fill="#FBDADA" x="94.4" y="3.62376795e-13" width="68.8" height="59.2" rx="27"></rect>
                                    <rect id="Rectangle-Copy" fill="#FDEDED" x="126.4" y="3.62376795e-13" width="68.8" height="59.2" rx="27"></rect>
                                </g>
                                <g id="03" transform="translate(0.000000, 70.000000)">
                                    <rect id="Rectangle" fill="#4A3D79" x="8.52651283e-14" y="3.62376795e-13" width="68.8" height="59.2" rx="27"></rect>
                                    <rect id="Rectangle-Copy" fill="#564984" x="34.4" y="3.62376795e-13" width="68.8" height="59.2" rx="27"></rect>
                                </g>
                                <g id="04" transform="translate(0.000000, 140.000000)">
                                    <rect id="Rectangle-Copy" fill="#35D391" x="5.68434189e-14" y="3.62376795e-13" width="68.8" height="59.2" rx="27"></rect>
                                    <rect id="Rectangle-Copy" fill="#6BEBB6" x="32" y="3.62376795e-13" width="68.8" height="59.2" rx="27"></rect>
                                    <rect id="Rectangle-Copy-2" fill="#A5F5D4" x="66.4" y="3.62376795e-13" width="68.8" height="59.2" rx="27"></rect>
                                </g>
                            </g>
                        </g>
                    </g>
                </g>
            </g>
        </g>
    </g>
</svg>