<?xml version="1.0" encoding="UTF-8"?>
<svg width="249px" height="118px" viewBox="0 0 249 118" version="1.1" xmlns="http://www.w3.org/2000/svg" xmlns:xlink="http://www.w3.org/1999/xlink">
    <!-- Generator: sketchtool 63.1 (101010) - https://sketch.com -->
    <title>EA1EDC92-CF7D-4BE0-985F-932A6E487796</title>
    <desc>Created with sketchtool.</desc>
    <g id="01.-catalog---Desktop" stroke="none" stroke-width="1" fill="none" fill-rule="evenodd">
        <g id="Case-Study---catalog---Desktop" transform="translate(-1108.000000, -5870.000000)" fill="#444F78" fill-rule="nonzero">
            <g id="::-Visual-Design-::" transform="translate(0.000000, 5320.000000)">
                <g id="UI-Elements" transform="translate(124.000000, 493.000000)">
                    <g id="Row_01" transform="translate(369.000000, 0.000000)">
                        <g id="Typography" transform="translate(615.000000, 0.000000)">
                            <g id="Text" transform="translate(0.000000, 57.000000)">
                                <path d="M10.28,58 L14.36,43.84 L31.96,43.84 L36.04,58 L45.8,58 L28.76,5.68 L17.88,5.68 L0.84,58 L10.28,58 Z M29.88,36.56 L16.52,36.56 L18.36,30.16 C20.04,24.64 21.56,18.72 23,12.88 L23.32,12.88 C24.84,18.64 26.36,24.64 28.04,30.16 L29.88,36.56 Z M72.52,58.96 C81.24,58.96 89.32,51.2 89.32,37.68 C89.32,25.6 83.64,17.76 73.8,17.76 C69.8,17.76 65.72,19.76 62.44,22.64 L62.68,16.08 L62.68,1.52 L53.48,1.52 L53.48,58 L60.76,58 L61.56,53.84 L61.8,53.84 C65.08,57.12 68.92,58.96 72.52,58.96 Z M70.6,51.36 C68.28,51.36 65.48,50.48 62.68,48.08 L62.68,29.76 C65.72,26.8 68.44,25.36 71.32,25.36 C77.24,25.36 79.8,30 79.8,37.84 C79.8,46.72 75.8,51.36 70.6,51.36 Z M116.92,58.96 C121.4,58.96 126.04,57.36 129.72,54.16 L125.96,48.08 C123.72,49.92 120.92,51.44 117.88,51.44 C111.72,51.44 107.4,46.24 107.4,38.4 C107.4,30.48 111.8,25.28 118.12,25.28 C120.6,25.28 122.6,26.32 124.68,28.16 L129.16,22.16 C126.28,19.68 122.68,17.76 117.64,17.76 C107.16,17.76 97.96,25.28 97.96,38.4 C97.96,51.44 106.2,58.96 116.92,58.96 Z M151.32,58.96 C155.56,58.96 159.56,56.64 162.44,53.76 L162.76,53.76 L163.4,58 L171,58 L171,1.52 L161.8,1.52 L161.8,15.76 L162.12,22.08 C159.08,19.44 156.28,17.76 151.8,17.76 C143.24,17.76 135.16,25.6 135.16,38.4 C135.16,51.36 141.48,58.96 151.32,58.96 Z M153.56,51.36 C147.88,51.36 144.68,46.8 144.68,38.32 C144.68,30.08 148.76,25.36 153.8,25.36 C156.44,25.36 159.08,26.24 161.8,28.64 L161.8,46.96 C159.16,50 156.6,51.36 153.56,51.36 Z M201.48,58.96 C206.44,58.96 211.16,57.2 214.92,54.72 L211.8,48.96 C208.92,50.8 206.04,51.84 202.68,51.84 C196.36,51.84 191.88,47.84 191.08,40.88 L216.04,40.88 C216.28,39.92 216.44,38.16 216.44,36.4 C216.44,25.44 210.84,17.76 200.2,17.76 C191,17.76 182.12,25.6 182.12,38.4 C182.12,51.36 190.6,58.96 201.48,58.96 Z M208.44,34.64 L191,34.64 C191.8,28.32 195.8,24.88 200.44,24.88 C205.8,24.88 208.44,28.56 208.44,34.64 Z M237.72,58 L237.72,26 L245.4,26 L245.4,18.72 L237.72,18.72 L237.72,14.48 C237.72,9.92 239.48,7.84 242.68,7.84 C244.04,7.84 245.56,8.16 247,8.8 L248.76,1.92 C247,1.2 244.36,0.56 241.56,0.56 C232.28,0.56 228.52,6.48 228.52,14.64 L228.52,18.72 L223.24,19.12 L223.24,26 L228.52,26 L228.52,58 L237.72,58 Z" id="Abcdef"></path>
                                <path d="M28.42,117 L28.42,111.36 L20.92,111.36 L20.92,78.84 L15.76,78.84 C13.36,80.28 10.72,81.24 6.94,81.96 L6.94,86.28 L13.96,86.28 L13.96,111.36 L5.44,111.36 L5.44,117 L28.42,117 Z M64.86,117 L64.86,111.12 L55.5,111.12 C53.64,111.12 51.12,111.36 49.14,111.54 C56.7,103.56 63,96.6 63,89.82 C63,82.74 58.26,78.12 50.94,78.12 C45.72,78.12 42.24,80.28 38.76,84 L42.6,87.84 C44.64,85.56 47.1,83.58 50.04,83.58 C54.12,83.58 56.34,86.16 56.34,90.18 C56.34,96 49.68,102.72 39.06,112.98 L39.06,117 L64.86,117 Z M86.96,117.72 C94.28,117.72 100.34,113.64 100.34,106.68 C100.34,101.64 96.92,98.4 92.42,97.2 L92.42,96.96 C96.56,95.34 99.08,92.46 99.08,88.2 C99.08,81.72 94.04,78.12 86.72,78.12 C82.16,78.12 78.5,80.04 75.26,82.92 L78.8,87.18 C81.14,85.02 83.48,83.58 86.48,83.58 C89.96,83.58 92.12,85.5 92.12,88.68 C92.12,92.22 89.66,94.8 82.16,94.8 L82.16,99.84 C90.86,99.84 93.38,102.36 93.38,106.32 C93.38,109.92 90.5,112.08 86.36,112.08 C82.52,112.08 79.58,110.22 77.3,107.88 L74,112.32 C76.7,115.32 80.78,117.72 86.96,117.72 Z M132.76,117 L132.76,107.16 L137.56,107.16 L137.56,101.82 L132.76,101.82 L132.76,78.84 L124.54,78.84 L109.42,102.48 L109.42,107.16 L126.28,107.16 L126.28,117 L132.76,117 Z M126.28,101.82 L116.26,101.82 L123.22,91.2 C124.3,89.16 125.38,87.24 126.34,85.26 L126.58,85.26 C126.46,87.48 126.28,90.96 126.28,93.18 L126.28,101.82 Z M158.58,117.72 C165.6,117.72 172.02,112.92 172.02,104.58 C172.02,96.36 166.56,92.64 160.02,92.64 C158.04,92.64 156.6,93.12 154.98,93.9 L155.76,84.66 L170.16,84.66 L170.16,78.84 L149.76,78.84 L148.62,97.68 L151.92,99.78 C154.2,98.28 155.58,97.62 158.04,97.62 C162.24,97.62 165.06,100.2 165.06,104.76 C165.06,109.38 161.94,112.08 157.68,112.08 C153.84,112.08 151.02,110.16 148.74,108 L145.56,112.44 C148.38,115.26 152.4,117.72 158.58,117.72 Z M196.4,117.72 C202.94,117.72 208.4,112.8 208.4,105.18 C208.4,97.2 203.84,93.36 197.24,93.36 C194.48,93.36 191.18,95.04 188.96,97.86 C189.26,87.3 193.16,83.76 197.96,83.76 C200.24,83.76 202.64,84.96 204.02,86.64 L207.74,82.44 C205.46,80.04 202.16,78.12 197.54,78.12 C189.74,78.12 182.54,84.24 182.54,99.06 C182.54,111.9 188.9,117.72 196.4,117.72 Z M196.28,112.44 C192.56,112.44 189.86,109.56 189.14,102.78 C191.3,99.6 193.82,98.4 195.98,98.4 C199.76,98.4 201.98,100.68 201.98,105.18 C201.98,109.86 199.46,112.44 196.28,112.44 Z M232.78,117 C233.44,102.12 235,94.14 243.94,83.04 L243.94,78.84 L218.32,78.84 L218.32,84.66 L236.38,84.66 C229,94.92 226.42,103.44 225.76,117 L232.78,117 Z" id="1234567"></path>
                            </g>
                        </g>
                    </g>
                </g>
            </g>
        </g>
    </g>
</svg>