<?xml version="1.0" encoding="UTF-8"?>
<svg width="24px" height="24px" viewBox="0 0 24 24" version="1.1" xmlns="http://www.w3.org/2000/svg" xmlns:xlink="http://www.w3.org/1999/xlink">
    <!-- Generator: sketchtool 61.2 (101010) - https://sketch.com -->
    <title>DF849838-CE9D-43D5-96F0-921979B72CF7</title>
    <desc>Created with sketchtool.</desc>
    <defs>
        <path d="M16.0502326,19.5869767 C15.867907,17.3395349 15.3795349,15.1525581 14.5925581,13.055814 C17.1162791,12.7581395 19.2139535,13.4046512 20.384186,13.9069767 C19.8251163,16.3637209 18.215814,18.4260465 16.0502326,19.5869767 M6.34790698,18.4716279 C7.07534884,17.2586047 9.10976744,14.4613953 12.9051163,13.3869767 C13.0037209,13.3590698 13.0995349,13.3386047 13.1962791,13.3144186 C14.0465116,15.504186 14.5581395,17.7981395 14.7032558,20.1618605 C13.852093,20.4455814 12.944186,20.6046512 12,20.6046512 C9.83534884,20.6046512 7.86139535,19.7953488 6.34790698,18.4716279 M3.41767442,11.5460465 C4.09302326,11.6269767 4.85488372,11.6837209 5.69116279,11.6837209 C7.50697674,11.6837209 9.66325581,11.4186047 11.9525581,10.6074419 C12.2046512,11.067907 12.4437209,11.5348837 12.6623256,12.0093023 C12.6176744,12.0223256 12.572093,12.0306977 12.5255814,12.0446512 C8.55813953,13.1683721 6.30232558,15.96 5.34418605,17.4455814 C4.12744186,15.9618605 3.39534884,14.064186 3.39534884,12 C3.39534884,11.8465116 3.41023256,11.6976744 3.41767442,11.5460465 M7.3655814,4.76093023 C8.8455814,6.12093023 10.147907,7.67906977 11.224186,9.37395349 C8.2344186,10.3786047 5.52093023,10.3897674 3.59813953,10.1590698 C4.09302326,7.90046512 5.47813953,5.97395349 7.3655814,4.76093023 M17.6223256,5.50046512 C16.1404651,6.90790698 14.4102326,8.04744186 12.5423256,8.85395349 C11.4595349,7.10697674 10.1553488,5.49023256 8.66790698,4.06604651 C9.69395349,3.63534884 10.8195349,3.39534884 12,3.39534884 C14.1497674,3.39534884 16.1125581,4.19255814 17.6223256,5.50046512 M20.5804651,12.4790698 C19.1544186,11.9218605 16.8186047,11.304186 14.0669767,11.7125581 C13.8213953,11.1609302 13.547907,10.6223256 13.2595349,10.0902326 C15.2269767,9.21860465 17.052093,7.9944186 18.615814,6.50511628 C19.8567442,7.9972093 20.6046512,9.91255814 20.6046512,12 C20.6046512,12.1618605 20.5888372,12.32 20.5804651,12.4790698 M22,12 C22,6.4855814 17.5134884,2 12,2 C10.3060465,2 8.71069767,2.42604651 7.31162791,3.17209302 C7.15348837,3.19534884 7,3.26511628 6.8855814,3.39627907 C6.87627907,3.40744186 6.87348837,3.42325581 6.86325581,3.43534884 C3.95534884,5.18604651 2,8.36465116 2,12 C2,17.5134884 6.4855814,22 12,22 C16.8837209,22 20.9534884,18.4790698 21.8223256,13.8437209 C21.8251163,13.8381395 21.8325581,13.8353488 21.8334884,13.8297674 C21.8595349,13.6548837 21.8762791,13.5795349 21.8865116,13.4213953 C21.9534884,12.9553488 22,12.4827907 22,12" id="path-1"></path>
    </defs>
    <g id="Asset-Artboard-Page" stroke="none" stroke-width="1" fill="none" fill-rule="evenodd">
        <g id="Icons/Social-Media/24px/dribbble">
            <mask id="mask-2" fill="white">
                <use xlink:href="#path-1"></use>
            </mask>
            <use id="ic_dribbble" fill="#000000" xlink:href="#path-1"></use>
            <g id="color-colors/primary---Mid-Gray" mask="url(#mask-2)" fill="#B3BCBF">
                <rect id="Rectangle" x="0" y="0" width="24" height="24"></rect>
            </g>
        </g>
    </g>
</svg>