<?xml version="1.0" encoding="UTF-8"?>
<svg width="24px" height="24px" viewBox="0 0 24 24" version="1.1" xmlns="http://www.w3.org/2000/svg" xmlns:xlink="http://www.w3.org/1999/xlink">
    <!-- Generator: sketchtool 61.2 (101010) - https://sketch.com -->
    <title>6F29F1B0-E13D-45C4-95BC-4591EE7C24B6</title>
    <desc>Created with sketchtool.</desc>
    <defs>
        <path d="M4.68292683,3.46341463 C4.01073171,3.46341463 3.46341463,4.01073171 3.46341463,4.68292683 L3.46341463,19.0234146 C3.46341463,19.8585366 4.14243902,20.5365854 4.97756098,20.5365854 L19.0234146,20.5365854 C19.8585366,20.5365854 20.5365854,19.8585366 20.5365854,19.0234146 L20.5365854,4.97756098 C20.5365854,4.14243902 19.8585366,3.46341463 19.0234146,3.46341463 L4.68292683,3.46341463 Z M19.0234146,22 L4.97756098,22 C3.33560976,22 2,20.6653659 2,19.0234146 L2,4.68292683 C2,3.20292683 3.20292683,2 4.68292683,2 L19.0234146,2 C20.6653659,2 22,3.33560976 22,4.97756098 L22,19.0234146 C22,20.6653659 20.6653659,22 19.0234146,22 L19.0234146,22 Z M13.6129424,9.39328574 L12.7391767,9.39328574 C12.5653957,9.39328574 12.3910071,9.57739632 12.3910071,9.71350448 L12.3910071,10.6285888 L13.6111196,10.6285888 C13.5625095,11.3303965 13.4616436,11.9720492 13.4616436,11.9720492 L12.3849309,11.9720492 L12.3849309,16 L10.780799,16 L10.780799,11.9714416 L10,11.9714416 L10,10.6334498 L10.780799,10.6334498 L10.780799,9.53972353 C10.780799,9.33920705 10.7413034,8 12.4244266,8 L13.6129424,8 L13.6129424,9.39328574 Z" id="path-1"></path>
    </defs>
    <g id="Asset-Artboard-Page" stroke="none" stroke-width="1" fill="none" fill-rule="evenodd">
        <g id="Icons/Social-Media/24px/facebook">
            <mask id="mask-2" fill="white">
                <use xlink:href="#path-1"></use>
            </mask>
            <use id="ic_Medium" fill="#000000" xlink:href="#path-1"></use>
            <g id="color-colors/primary---Mid-Gray" mask="url(#mask-2)" fill="#B3BCBF">
                <rect id="Rectangle" x="0" y="0" width="24" height="24"></rect>
            </g>
        </g>
    </g>
</svg>