<?xml version="1.0" encoding="UTF-8"?>
<svg width="24px" height="24px" viewBox="0 0 24 24" version="1.1" xmlns="http://www.w3.org/2000/svg" xmlns:xlink="http://www.w3.org/1999/xlink">
    <!-- Generator: sketchtool 61.2 (101010) - https://sketch.com -->
    <title>B0974956-8394-4BD4-A86A-958F6E0899C5</title>
    <desc>Created with sketchtool.</desc>
    <defs>
        <path d="M19.0234146,2 C20.6653659,2 22,3.33560976 22,4.97756098 L22,19.0234146 C22,20.6653659 20.6653659,22 19.0234146,22 L4.97756098,22 C3.33560976,22 2,20.6653659 2,19.0234146 L2,4.68292683 C2,3.20292683 3.20292683,2 4.68292683,2 L19.0234146,2 Z M19.0234146,3.46341463 L4.68292683,3.46341463 C4.01073171,3.46341463 3.46341463,4.01073171 3.46341463,4.68292683 L3.46341463,19.0234146 C3.46341463,19.8585366 4.14243902,20.5365854 4.97756098,20.5365854 L19.0234146,20.5365854 C19.8585366,20.5365854 20.5365854,19.8585366 20.5365854,19.0234146 L20.5365854,4.97756098 C20.5365854,4.14243902 19.8585366,3.46341463 19.0234146,3.46341463 Z M7.4391535,8.11705696 L10.1421738,9.46769406 C10.1814619,9.50698215 10.1517776,9.23807703 10.1578891,15.6821962 C10.1578891,15.9563398 9.95184488,16.0698387 9.72397398,15.9563398 L7.26453978,14.7270592 C7.19032895,14.6921365 7.12834108,14.6336409 7.07683004,14.5506994 C7.02531899,14.4677578 7,14.3856894 7,14.3053671 L7,8.29079761 C7,8.06641899 7.13445256,7.96514303 7.4391535,8.11705696 Z M16.4789056,10.1216224 L16.4789056,15.6821962 C16.4789056,15.7703762 16.4535866,15.8410947 16.4046948,15.896098 C16.3549299,15.9502283 16.2877036,15.9781665 16.2030159,15.9781665 C16.1183283,15.9781665 16.0362598,15.9545936 15.9550645,15.9091941 L13.6222252,14.7480129 L16.4789056,10.1216224 Z M10.4957666,10.026458 L13.3210165,14.5952259 L10.4957666,13.1922046 L10.4957666,10.026458 Z M13.5794448,8.03236931 L16.4422367,9.45721724 C16.4553328,9.46420179 16.4631904,9.47380554 16.4631904,9.48864771 C16.4631904,9.49912453 16.0100678,10.2368675 15.1055687,11.7010035 C14.2019427,13.1660126 13.6719901,14.0233659 13.5165839,14.2730635 L11.4535228,10.9283378 L13.1673565,8.14848743 C13.2607748,7.99482736 13.4519768,7.96863531 13.5794448,8.03236931 Z" id="path-1"></path>
    </defs>
    <g id="Asset-Artboard-Page" stroke="none" stroke-width="1" fill="none" fill-rule="evenodd">
        <g id="Icons/Social-Media/24px/Medium">
            <mask id="mask-2" fill="white">
                <use xlink:href="#path-1"></use>
            </mask>
            <use id="ic_Medium" fill="#000000" xlink:href="#path-1"></use>
            <g id="color-colors/primary---Mid-Gray" mask="url(#mask-2)" fill="#B3BCBF">
                <rect id="Rectangle" x="0" y="0" width="24" height="24"></rect>
            </g>
        </g>
    </g>
</svg>