<?xml version="1.0" encoding="UTF-8"?>
<svg width="24px" height="24px" viewBox="0 0 24 24" version="1.1" xmlns="http://www.w3.org/2000/svg" xmlns:xlink="http://www.w3.org/1999/xlink">
    <!-- Generator: sketchtool 61.2 (101010) - https://sketch.com -->
    <title>BE96D6B1-039C-4FF6-B689-C9CD9AEE8FC1</title>
    <desc>Created with sketchtool.</desc>
    <defs>
        <path d="M4.68292683,3.46341463 C4.01073171,3.46341463 3.46341463,4.01073171 3.46341463,4.68292683 L3.46341463,19.0234146 C3.46341463,19.8585366 4.14243902,20.5365854 4.97756098,20.5365854 L19.0234146,20.5365854 C19.8585366,20.5365854 20.5365854,19.8585366 20.5365854,19.0234146 L20.5365854,4.97756098 C20.5365854,4.14243902 19.8585366,3.46341463 19.0234146,3.46341463 L4.68292683,3.46341463 Z M19.0234146,22 L4.97756098,22 C3.33560976,22 2,20.6653659 2,19.0234146 L2,4.68292683 C2,3.20292683 3.20292683,2 4.68292683,2 L19.0234146,2 C20.6653659,2 22,3.33560976 22,4.97756098 L22,19.0234146 C22,20.6653659 20.6653659,22 19.0234146,22 L19.0234146,22 Z M15.9218402,8.93132921 C15.7206416,9.02564103 15.5115838,9.10109048 15.2970244,9.15453384 C15.5335899,8.9163965 15.7112105,8.61852834 15.8110238,8.28607918 C15.8401033,8.19098143 15.7426477,8.10845859 15.6616968,8.15954416 C15.3638286,8.34738186 15.0423825,8.48884959 14.7060037,8.57844582 C14.6871413,8.58394734 14.6667071,8.58630514 14.6462728,8.58630514 C14.5857561,8.58630514 14.5260253,8.56194125 14.4788694,8.518715 C14.1220563,8.18469398 13.6630721,8 13.1860115,8 C12.9800974,8 12.7710395,8.034581 12.5666972,8.1013852 C11.9332362,8.31044307 11.4443866,8.86531093 11.290344,9.54907162 C11.2329709,9.80528539 11.2180382,10.0622851 11.243974,10.3129973 C11.2471177,10.3412909 11.2345428,10.3609392 11.2258976,10.3711563 C11.2125367,10.3876609 11.1928884,10.3963061 11.1724542,10.3963061 L11.1653808,10.3963061 C9.77899707,10.259554 8.52779362,9.55064348 7.64362032,8.4000393 C7.59803627,8.34109441 7.51158377,8.34895373 7.47543091,8.41418607 C7.30252591,8.72934473 7.21057189,9.0893015 7.21057189,9.45633166 C7.21057189,10.0182729 7.42355941,10.547991 7.7937333,10.9346694 C7.6381188,10.8953728 7.48800582,10.8332842 7.34810995,10.7507614 C7.28051982,10.7114648 7.19642511,10.7625503 7.19563918,10.8450732 C7.186208,11.6797328 7.64754998,12.4224384 8.33759812,12.7572453 L8.29594373,12.7572453 C8.18591327,12.7572453 8.07588282,12.7462423 7.9666383,12.7242362 C7.89040291,12.7093035 7.8259565,12.7855389 7.84953446,12.864132 C8.07431096,13.6060517 8.67633473,14.1538462 9.39703421,14.2772374 C8.79894009,14.7039984 8.1026045,14.927989 7.37718943,14.927989 L7.15084107,14.927989 C7.08167907,14.927989 7.02273418,14.9759308 7.00465775,15.0474506 C6.98736725,15.1181845 7.01959045,15.192848 7.07853534,15.2290009 C7.89590443,15.7335691 8.82801957,16 9.77506742,16 C10.6026536,16 11.3783683,15.8255231 12.0778476,15.4820709 C12.7199539,15.1669123 13.2866108,14.7150015 13.7636714,14.1420572 C14.2077229,13.6076235 14.5551047,12.9906671 14.7955999,12.3084782 C15.025092,11.6585126 15.1469114,10.9637489 15.1469114,10.3012084 L15.1469114,10.2697711 C15.1469114,10.1628844 15.1917095,10.063071 15.2710886,9.99548089 C15.5721005,9.73612339 15.8330299,9.43275371 16.0483752,9.09008743 C16.1049623,9.00049121 16.0153661,8.88731703 15.9218402,8.93132921" id="path-1"></path>
    </defs>
    <g id="Asset-Artboard-Page" stroke="none" stroke-width="1" fill="none" fill-rule="evenodd">
        <g id="Icons/Social-Media/24px/twitter">
            <mask id="mask-2" fill="white">
                <use xlink:href="#path-1"></use>
            </mask>
            <use id="ic_Medium" fill="#000000" xlink:href="#path-1"></use>
            <g id="color-colors/primary---Mid-Gray" mask="url(#mask-2)" fill="#B3BCBF">
                <rect id="Rectangle" x="0" y="0" width="24" height="24"></rect>
            </g>
        </g>
    </g>
</svg>