<?xml version="1.0" encoding="UTF-8"?>
<svg width="64px" height="64px" viewBox="0 0 64 64" version="1.1" xmlns="http://www.w3.org/2000/svg" xmlns:xlink="http://www.w3.org/1999/xlink">
    <!-- Generator: sketchtool 61.2 (101010) - https://sketch.com -->
    <title>7E4E3061-0429-403A-B5F5-44505887750C</title>
    <desc>Created with sketchtool.</desc>
    <g id="Asset-Artboard-Page" stroke="none" stroke-width="1" fill="none" fill-rule="evenodd">
        <g id="Icons/services/64px/default/design">
            <g id="Design" transform="translate(5.000000, 8.000000)">
                <path d="M26.7274909,25.0909091 C13.5274909,25.0909091 4.36385455,30 4.36385455,34.3636364 C4.36385455,38.7272727 13.5274909,43.6363636 26.7274909,43.6363636 C39.9274909,43.6363636 49.0911273,38.7272727 49.0911273,34.3636364 C49.0911273,30 39.9274909,25.0909091 26.7274909,25.0909091 M26.7274909,48 C11.4547636,48 0.000218181818,42.1090909 0.000218181818,34.3636364 C0.000218181818,26.6181818 11.4547636,20.7272727 26.7274909,20.7272727 C42.0002182,20.7272727 53.4547636,26.6181818 53.4547636,34.3636364 C53.4547636,42.1090909 42.0002182,48 26.7274909,48" id="Fill-1" fill="#B4E1E4"></path>
                <path d="M26.7274909,14.5088727 C13.5274909,14.5088727 4.36385455,19.4179636 4.36385455,23.7816 C4.36385455,28.1452364 13.5274909,33.0543273 26.7274909,33.0543273 C39.9274909,33.0543273 49.0911273,28.1452364 49.0911273,23.7816 C49.0911273,19.4179636 39.9274909,14.5088727 26.7274909,14.5088727 M26.7274909,37.4179636 C11.4547636,37.4179636 0.000218181818,31.5270545 0.000218181818,23.7816 C0.000218181818,16.0361455 11.4547636,10.1452364 26.7274909,10.1452364 C42.0002182,10.1452364 53.4547636,16.0361455 53.4547636,23.7816 C53.4547636,31.5270545 42.0002182,37.4179636 26.7274909,37.4179636" id="Fill-3" fill="#78CDD1"></path>
                <path d="M26.8361455,4.36363636 C13.6361455,4.36363636 4.47250909,9.27272727 4.47250909,13.6363636 C4.47250909,18 13.6361455,22.9090909 26.8361455,22.9090909 C40.0361455,22.9090909 49.1997818,18 49.1997818,13.6363636 C49.1997818,9.27272727 39.9270545,4.36363636 26.8361455,4.36363636 M26.8361455,27.2727273 C11.5634182,27.2727273 0.108872727,21.3818182 0.108872727,13.6363636 C0.108872727,5.89090909 11.5634182,0 26.8361455,0 C42.1088727,0 53.5634182,5.89090909 53.5634182,13.6363636 C53.5634182,21.3818182 41.9997818,27.2727273 26.8361455,27.2727273" id="Fill-5" fill="#38C0C4"></path>
            </g>
        </g>
    </g>
</svg>