<?xml version="1.0" encoding="UTF-8"?>
<svg width="64px" height="64px" viewBox="0 0 64 64" version="1.1" xmlns="http://www.w3.org/2000/svg" xmlns:xlink="http://www.w3.org/1999/xlink">
    <!-- Generator: sketchtool 61.2 (101010) - https://sketch.com -->
    <title>956E4875-5668-4F86-8917-E113A32335B9</title>
    <desc>Created with sketchtool.</desc>
    <g id="Asset-Artboard-Page" stroke="none" stroke-width="1" fill="none" fill-rule="evenodd">
        <g id="icons/services/64px/default/ic_discovery-Icons/services/64px/default/discovery">
            <g id="ic_discovery" transform="translate(8.000000, 8.000000)">
                <path d="M23.999808,4.320192 C13.147968,4.320192 4.319808,13.148352 4.319808,24.000192 C4.319808,34.852032 13.147968,43.680192 23.999808,43.680192 C34.851648,43.680192 43.679808,34.852032 43.679808,24.000192 C43.679808,13.148352 34.851648,4.320192 23.999808,4.320192 M23.999808,47.520192 C11.030208,47.520192 0.479808,36.969792 0.479808,24.000192 C0.479808,11.031552 11.030208,0.480192 23.999808,0.480192 C36.969408,0.480192 47.519808,11.031552 47.519808,24.000192 C47.519808,36.969792 36.969408,47.520192 23.999808,47.520192" id="Fill-3" fill="#78CDD1"></path>
                <path d="M18.53328,23.996448 L23.99952,33.494688 L29.46672,23.996448 L23.99952,14.430048 L18.53328,23.996448 Z M23.99952,39.263328 C23.31312,39.263328 22.6776,38.896608 22.33584,38.301408 L14.65584,24.958368 C14.31504,24.367008 14.31408,23.640288 14.65296,23.047968 L22.33296,9.607968 C22.67376,9.009888 23.3112,8.640288 23.99952,8.640288 C24.6888,8.640288 25.32528,9.009888 25.66704,9.607968 L33.34704,23.047968 C33.68496,23.640288 33.684,24.367008 33.34416,24.958368 L25.66416,38.301408 C25.32144,38.896608 24.68688,39.263328 23.99952,39.263328 L23.99952,39.263328 Z" id="Fill-5" fill="#38C0C4"></path>
                <path d="M23.999808,21.600192 C25.325568,21.600192 26.399808,22.674432 26.399808,24.000192 C26.399808,25.324992 25.325568,26.400192 23.999808,26.400192 C22.674048,26.400192 21.599808,25.324992 21.599808,24.000192 C21.599808,22.674432 22.674048,21.600192 23.999808,21.600192" id="Fill-7" fill="#B4E1E4"></path>
            </g>
        </g>
    </g>
</svg>