<?xml version="1.0" encoding="UTF-8"?>
<svg width="64px" height="64px" viewBox="0 0 64 64" version="1.1" xmlns="http://www.w3.org/2000/svg" xmlns:xlink="http://www.w3.org/1999/xlink">
    <!-- Generator: sketchtool 61.2 (101010) - https://sketch.com -->
    <title>75D06091-7D92-489C-9DA9-802A03DBB32F</title>
    <desc>Created with sketchtool.</desc>
    <g id="Asset-Artboard-Page" stroke="none" stroke-width="1" fill="none" fill-rule="evenodd">
        <g id="Icons/services/64px/default/launch">
            <g id="ic_launch" transform="translate(14.000000, 8.000000)">
                <path d="M4.44596913,35.3574149 L31.0495369,35.3574149 L31.0495369,16.4553772 L17.647163,5.14038574 L4.44596913,16.4453737 L4.44596913,35.3574149 Z M33.2725214,39.803384 L2.22298456,39.803384 C0.995897084,39.803384 0,38.8074869 0,37.5803995 L0,15.4228008 C0,14.7736893 0.284542024,14.1568111 0.776933105,13.7344441 L16.1899966,0.534361729 C17.0180583,-0.174770346 18.2362539,-0.178104823 19.0698731,0.524358299 L34.7063465,13.7244406 C35.206518,14.1468077 35.495506,14.7692434 35.495506,15.4228008 L35.495506,37.5803995 C35.495506,38.8074869 34.4996089,39.803384 33.2725214,39.803384 L33.2725214,39.803384 Z" id="Fill-1" fill="#38C0C4"></path>
                <g id="Group" transform="translate(5.000000, 43.000000)" fill="#78CDD1">
                    <path d="M12.6689537,4.44596913 L12.6689537,4.44596913 C11.4418662,4.44596913 10.4459691,3.45007204 10.4459691,2.22298456 C10.4459691,0.995897084 11.4418662,1.42108547e-14 12.6689537,1.42108547e-14 C13.8971527,1.42108547e-14 14.8919383,0.995897084 14.8919383,2.22298456 C14.8919383,3.45007204 13.8960412,4.44596913 12.6689537,4.44596913" id="Fill-4"></path>
                    <path d="M23.1149228,4.44596913 L23.1149228,4.44596913 C21.8878353,4.44596913 20.8919383,3.45007204 20.8919383,2.22298456 C20.8919383,0.995897084 21.8878353,1.42108547e-14 23.1149228,1.42108547e-14 C24.3431218,1.42108547e-14 25.3379074,0.995897084 25.3379074,2.22298456 C25.3379074,3.45007204 24.3420103,4.44596913 23.1149228,4.44596913" id="Fill-7"></path>
                    <path d="M2.22298456,4.44596913 L2.22298456,4.44596913 C0.995897084,4.44596913 -1.52322599e-13,3.45007204 -1.52322599e-13,2.22298456 C-1.52322599e-13,0.995897084 0.995897084,1.42108547e-14 2.22298456,1.42108547e-14 C3.45118353,1.42108547e-14 4.44596913,0.995897084 4.44596913,2.22298456 C4.44596913,3.45007204 3.45007204,4.44596913 2.22298456,4.44596913" id="Fill-10"></path>
                </g>
                <path d="M24.1834045,21.6587444 L10.8454971,21.6587444 C9.61840961,21.6587444 8.62251252,20.6628473 8.62251252,19.4357599 C8.62251252,18.2086724 9.61840961,17.2127753 10.8454971,17.2127753 L24.1834045,17.2127753 C25.4104919,17.2127753 26.406389,18.2086724 26.406389,19.4357599 C26.406389,20.6628473 25.4104919,21.6587444 24.1834045,21.6587444" id="Fill-13" fill="#B4E1E4"></path>
            </g>
        </g>
    </g>
</svg>