<?xml version="1.0" encoding="UTF-8"?>
<svg width="24px" height="24px" viewBox="0 0 24 24" version="1.1" xmlns="http://www.w3.org/2000/svg" xmlns:xlink="http://www.w3.org/1999/xlink">
    <!-- Generator: sketchtool 61.2 (101010) - https://sketch.com -->
    <title>9C9421FB-8670-41A2-BC1E-855272E9EBA5</title>
    <desc>Created with sketchtool.</desc>
    <defs>
        <path d="M4.68292683,3.46341463 C4.01073171,3.46341463 3.46341463,4.01073171 3.46341463,4.68292683 L3.46341463,19.0234146 C3.46341463,19.8585366 4.14243902,20.5365854 4.97756098,20.5365854 L19.0234146,20.5365854 C19.8585366,20.5365854 20.5365854,19.8585366 20.5365854,19.0234146 L20.5365854,4.97756098 C20.5365854,4.14243902 19.8585366,3.46341463 19.0234146,3.46341463 L4.68292683,3.46341463 Z M19.0234146,22 L4.97756098,22 C3.33560976,22 2,20.6653659 2,19.0234146 L2,4.68292683 C2,3.20292683 3.20292683,2 4.68292683,2 L19.0234146,2 C20.6653659,2 22,3.33560976 22,4.97756098 L22,19.0234146 C22,20.6653659 20.6653659,22 19.0234146,22 L19.0234146,22 Z M16.3684718,16 L14.5746772,16 L14.5746772,13.1123531 C14.5746772,12.3869724 14.3148969,11.8920794 13.6658316,11.8920794 C13.1701677,11.8920794 12.8749277,12.2258624 12.745423,12.5473116 C12.6976296,12.6629408 12.6868375,12.8240509 12.6868375,12.9859318 L12.6868375,16 L10.8922721,16 C10.8922721,16 10.9161688,11.1081133 10.8922721,10.6024282 L12.6868375,10.6024282 L12.6868375,11.3663519 C12.9242629,10.998651 13.3513201,10.4760069 14.3025631,10.4760069 C15.4835228,10.4760069 16.3684718,11.2468684 16.3684718,12.9049913 L16.3684718,16 Z M9.00211987,9.86548468 L8.99055695,9.86548468 C8.38851416,9.86548468 8,9.45076123 8,8.93274234 C8,8.40393139 8.40084795,8 9.01445365,8 C9.62805936,8 10.0057815,8.40393139 10.0173444,8.93274234 C10.0173444,9.45076123 9.62805936,9.86548468 9.00211987,9.86548468 L9.00211987,9.86548468 Z M8.10483716,16 L9.89940258,16 L9.89940258,10.6024282 L8.10483716,10.6024282 L8.10483716,16 Z" id="path-1"></path>
    </defs>
    <g id="Asset-Artboard-Page" stroke="none" stroke-width="1" fill="none" fill-rule="evenodd">
        <g id="Icons/Social-Media/24px/linkedin">
            <mask id="mask-2" fill="white">
                <use xlink:href="#path-1"></use>
            </mask>
            <use id="ic_Medium" fill="#000000" xlink:href="#path-1"></use>
            <g id="color-colors/primary---Mid-Gray" mask="url(#mask-2)" fill="#B3BCBF">
                <rect id="Rectangle" x="0" y="0" width="24" height="24"></rect>
            </g>
        </g>
    </g>
</svg>