<?xml version="1.0" encoding="UTF-8"?>
<svg width="64px" height="64px" viewBox="0 0 64 64" version="1.1" xmlns="http://www.w3.org/2000/svg" xmlns:xlink="http://www.w3.org/1999/xlink">
    <!-- Generator: sketchtool 61.2 (101010) - https://sketch.com -->
    <title>032E2E89-17C3-4995-8613-605D5220C407</title>
    <desc>Created with sketchtool.</desc>
    <defs>
        <polygon id="path-1" points="0 0.101923404 32.5786213 0.101923404 32.5786213 32.6806468 0 32.6806468"></polygon>
        <polygon id="path-3" points="0.51053617 0.714893617 33.0892596 0.714893617 33.0892596 33.2934128 0.51053617 33.2934128"></polygon>
    </defs>
    <g id="Asset-Artboard-Page" stroke="none" stroke-width="1" fill="none" fill-rule="evenodd">
        <g id="Icons/services/64px/default/scale">
            <g id="Group-9" transform="translate(9.000000, 8.000000)">
                <path d="M36.5619064,13.6849021 L36.5619064,13.6849021 C35.4385021,13.6849021 34.5193532,12.7657532 34.5193532,11.6423489 C34.5193532,10.5189447 35.4385021,9.59979574 36.5619064,9.59979574 C37.6853106,9.59979574 38.6044596,10.5189447 38.6044596,11.6423489 C38.6044596,12.7657532 37.6853106,13.6849021 36.5619064,13.6849021" id="Fill-1" fill="#78CDD1"></path>
                <g id="Group-5" transform="translate(0.000000, 14.604255)">
                    <mask id="mask-2" fill="white">
                        <use xlink:href="#path-1"></use>
                    </mask>
                    <g id="Clip-4"></g>
                    <path d="M10.2126638,4.18702979 C6.84245106,4.18702979 4.08500426,6.9444766 4.08500426,10.3146894 L4.08500426,22.4678809 C4.08500426,25.8380936 6.84245106,28.5955404 10.2126638,28.5955404 L22.3658553,28.5955404 C25.7360681,28.5955404 28.4935149,25.8380936 28.4935149,22.4678809 L28.4935149,10.3146894 C28.4935149,6.9444766 25.7360681,4.18702979 22.3658553,4.18702979 L10.2126638,4.18702979 Z M22.3658553,32.6806468 L10.2126638,32.6806468 C4.59564255,32.6806468 -0.00010212766,28.0849021 -0.00010212766,22.4678809 L-0.00010212766,10.3146894 C-0.00010212766,4.69766809 4.59564255,0.101923404 10.2126638,0.101923404 L22.3658553,0.101923404 C27.9828766,0.101923404 32.5786213,4.69766809 32.5786213,10.3146894 L32.5786213,22.4678809 C32.5786213,28.0849021 27.9828766,32.6806468 22.3658553,32.6806468 L22.3658553,32.6806468 Z" id="Fill-3" fill="#B4E1E4" mask="url(#mask-2)"></path>
                </g>
                <g id="Group-8" transform="translate(13.276596, 0.306383)">
                    <mask id="mask-4" fill="white">
                        <use xlink:href="#path-3"></use>
                    </mask>
                    <g id="Clip-7"></g>
                    <path d="M10.7233021,4.69766809 C7.35308936,4.69766809 4.59564255,7.45511489 4.59564255,10.8253277 L4.59564255,22.9785191 C4.59564255,26.3487319 7.35308936,29.1061787 10.7233021,29.1061787 L22.8764936,29.1061787 C26.2467064,29.1061787 29.0041532,26.3487319 29.0041532,22.9785191 L29.0041532,10.8253277 C29.0041532,7.45511489 26.2467064,4.69766809 22.8764936,4.69766809 L10.7233021,4.69766809 Z M22.8764936,33.2934128 L10.7233021,33.2934128 C5.10628085,33.2934128 0.51053617,28.6976681 0.51053617,23.0806468 L0.51053617,10.9274553 C0.51053617,5.31043404 5.10628085,0.714689362 10.7233021,0.714689362 L22.8764936,0.714689362 C28.4935149,0.714689362 33.0892596,5.31043404 33.0892596,10.9274553 L33.0892596,23.0806468 C33.0892596,28.6976681 28.4935149,33.2934128 22.8764936,33.2934128 L22.8764936,33.2934128 Z" id="Fill-6" fill="#38C0C4" mask="url(#mask-4)"></path>
                </g>
            </g>
        </g>
    </g>
</svg>