<?xml version="1.0" encoding="UTF-8"?>
<svg width="16px" height="16px" viewBox="0 0 16 16" version="1.1" xmlns="http://www.w3.org/2000/svg" xmlns:xlink="http://www.w3.org/1999/xlink">
    <!-- Generator: Sketch 61 (89581) - https://sketch.com -->
    <title>Fill 1</title>
    <desc>Created with Sketch.</desc>
    <g id="_Symbols" stroke="none" stroke-width="1" fill="none" fill-rule="evenodd">
        <g id="UI-Elements/Buttons/Secondary/Green/social-media" transform="translate(-13.000000, -17.000000)">
            <rect id="Rectangle" fill="#01C4CF" x="0" y="0" width="110" height="50" rx="5"></rect>
            <path d="M24.240186,31.0695814 C24.0943256,29.2716279 23.7036279,27.5220465 23.0740465,25.8446512 C25.0930233,25.6065116 26.7711628,26.1237209 27.7073488,26.5255814 C27.260093,28.4909767 25.9726512,30.1408372 24.240186,31.0695814 M16.4783256,30.1773023 C17.0602791,29.2068837 18.687814,26.9691163 21.724093,26.1095814 C21.8029767,26.0872558 21.8796279,26.0708837 21.9570233,26.0515349 C22.6372093,27.8033488 23.0465116,29.6385116 23.1626047,31.5294884 C22.4816744,31.7564651 21.7553488,31.8837209 21,31.8837209 C19.2682791,31.8837209 17.6891163,31.2362791 16.4783256,30.1773023 M14.1341395,24.6368372 C14.6744186,24.7015814 15.283907,24.7469767 15.9529302,24.7469767 C17.4055814,24.7469767 19.1306047,24.5348837 20.9620465,23.8859535 C21.1637209,24.2543256 21.3549767,24.627907 21.5298605,25.0074419 C21.4941395,25.0178605 21.4576744,25.0245581 21.4204651,25.0357209 C18.2465116,25.9346977 16.4418605,28.168 15.6753488,29.3564651 C14.7019535,28.1694884 14.1162791,26.6513488 14.1162791,25 C14.1162791,24.8772093 14.128186,24.7581395 14.1341395,24.6368372 M17.2924651,19.2087442 C18.4764651,20.2967442 19.5183256,21.5432558 20.3793488,22.8991628 C17.9875349,23.7028837 15.8167442,23.711814 14.2785116,23.5272558 C14.6744186,21.7203721 15.7825116,20.1791628 17.2924651,19.2087442 M25.4978605,19.8003721 C24.3123721,20.9263256 22.928186,21.8379535 21.4338605,22.4831628 C20.5676279,21.0855814 19.5242791,19.792186 18.3343256,18.6528372 C19.1551628,18.3082791 20.0556279,18.1162791 21,18.1162791 C22.719814,18.1162791 24.2900465,18.7540465 25.4978605,19.8003721 M27.8643721,25.3832558 C26.7235349,24.9374884 24.8548837,24.4433488 22.6535814,24.7700465 C22.4571163,24.3287442 22.2383256,23.8978605 22.0076279,23.472186 C23.5815814,22.7748837 25.0416744,21.7955349 26.2926512,20.604093 C27.2853953,21.7977674 27.8837209,23.3300465 27.8837209,25 C27.8837209,25.1294884 27.8710698,25.256 27.8643721,25.3832558 M29,25 C29,20.5884651 25.4107907,17 21,17 C19.6448372,17 18.3685581,17.3408372 17.2493023,17.9376744 C17.1227907,17.9562791 17,18.012093 16.9084651,18.1170233 C16.9010233,18.1259535 16.8987907,18.1386047 16.8906047,18.1482791 C14.5642791,19.5488372 13,22.0917209 13,25 C13,29.4107907 16.5884651,33 21,33 C24.9069767,33 28.1627907,30.1832558 28.8578605,26.4749767 C28.860093,26.4705116 28.8660465,26.4682791 28.8667907,26.463814 C28.8876279,26.323907 28.9010233,26.2636279 28.9092093,26.1371163 C28.9627907,25.7642791 29,25.3862326 29,25" id="Fill-1" fill="#FFFFFF"></path>
        </g>
    </g>
</svg>
