<?xml version="1.0" encoding="UTF-8"?>
<svg width="26px" height="26px" viewBox="0 0 26 26" version="1.1" xmlns="http://www.w3.org/2000/svg" xmlns:xlink="http://www.w3.org/1999/xlink">
    <!-- Generator: sketchtool 63 (101010) - https://sketch.com -->
    <title>56AE09D4-F7E0-4BDE-943C-D333BA48E7A7</title>
    <desc>Created with sketchtool.</desc>
    <defs>
        <path d="M5.85365854,4.32926829 C5.01341463,4.32926829 4.32926829,5.01341463 4.32926829,5.85365854 L4.32926829,23.7792683 C4.32926829,24.8231707 5.17804878,25.6707317 6.22195122,25.6707317 L23.7792683,25.6707317 C24.8231707,25.6707317 25.6707317,24.8231707 25.6707317,23.7792683 L25.6707317,6.22195122 C25.6707317,5.17804878 24.8231707,4.32926829 23.7792683,4.32926829 L5.85365854,4.32926829 Z M23.7792683,27.5 L6.22195122,27.5 C4.1695122,27.5 2.5,25.8317073 2.5,23.7792683 L2.5,5.85365854 C2.5,4.00365854 4.00365854,2.5 5.85365854,2.5 L23.7792683,2.5 C25.8317073,2.5 27.5,4.1695122 27.5,6.22195122 L27.5,23.7792683 C27.5,25.8317073 25.8317073,27.5 23.7792683,27.5 L23.7792683,27.5 Z M20.4605897,20 L18.2183465,20 L18.2183465,16.3904413 C18.2183465,15.4837156 17.8936211,14.8650992 17.0822895,14.8650992 C16.4627096,14.8650992 16.0936597,15.282328 15.9317788,15.6841395 C15.872037,15.828676 15.8585469,16.0300636 15.8585469,16.2324147 L15.8585469,20 L13.6153401,20 C13.6153401,20 13.645211,13.8851416 13.6153401,13.2530353 L15.8585469,13.2530353 L15.8585469,14.2079399 C16.1553286,13.7483137 16.6891501,13.0950087 17.8782039,13.0950087 C19.3544035,13.0950087 20.4605897,14.0585855 20.4605897,16.1312392 L20.4605897,20 Z M11.2526498,12.3318558 L11.2381962,12.3318558 C10.4856427,12.3318558 10,11.8134515 10,11.1659279 C10,10.5049142 10.5010599,10 11.2680671,10 C12.0350742,10 12.5072268,10.5049142 12.5216805,11.1659279 C12.5216805,11.8134515 12.0350742,12.3318558 11.2526498,12.3318558 L11.2526498,12.3318558 Z M10.1310464,20 L12.3742532,20 L12.3742532,13.2530353 L10.1310464,13.2530353 L10.1310464,20 Z" id="path-1"></path>
    </defs>
    <g id="01.-mPulse---Desktop" stroke="none" stroke-width="1" fill="none" fill-rule="evenodd">
        <g id="Case-Study---mPulse---Desktop" transform="translate(-1330.000000, -1187.000000)">
            <g id="::-Overview-::" transform="translate(0.000000, 93.000000)">
                <g id="Project-Summary" transform="translate(493.000000, 1064.000000)">
                    <g id="Share-On" transform="translate(835.000000, 0.000000)">
                        <g id="Icons" transform="translate(0.000000, 28.000000)">
                            <g id="Icons/Social-Media/24px/linkedin">
                                <mask id="mask-2" fill="white">
                                    <use xlink:href="#path-1"></use>
                                </mask>
                                <use id="ic_Medium" fill="#000000" xlink:href="#path-1"></use>
                                <g id="color" mask="url(#mask-2)" fill="#B3BCBF">
                                    <rect id="Rectangle" x="0" y="0" width="30" height="30"></rect>
                                </g>
                            </g>
                        </g>
                    </g>
                </g>
            </g>
        </g>
    </g>
</svg>