<?xml version="1.0" encoding="UTF-8"?>
<svg width="26px" height="26px" viewBox="0 0 26 26" version="1.1" xmlns="http://www.w3.org/2000/svg" xmlns:xlink="http://www.w3.org/1999/xlink">
    <!-- Generator: sketchtool 63 (101010) - https://sketch.com -->
    <title>4B100459-A845-4005-8AB4-28AABA104C72</title>
    <desc>Created with sketchtool.</desc>
    <defs>
        <path d="M23.7792683,2.5 C25.8317073,2.5 27.5,4.1695122 27.5,6.22195122 L27.5,23.7792683 C27.5,25.8317073 25.8317073,27.5 23.7792683,27.5 L6.22195122,27.5 C4.1695122,27.5 2.5,25.8317073 2.5,23.7792683 L2.5,5.85365854 C2.5,4.00365854 4.00365854,2.5 5.85365854,2.5 L23.7792683,2.5 Z M23.7792683,4.32926829 L5.85365854,4.32926829 C5.01341463,4.32926829 4.32926829,5.01341463 4.32926829,5.85365854 L4.32926829,23.7792683 C4.32926829,24.8231707 5.17804878,25.6707317 6.22195122,25.6707317 L23.7792683,25.6707317 C24.8231707,25.6707317 25.6707317,24.8231707 25.6707317,23.7792683 L25.6707317,6.22195122 C25.6707317,5.17804878 24.8231707,4.32926829 23.7792683,4.32926829 Z M13.7421693,12.5 C14.1671976,12.5 14.583311,12.6318341 14.9412452,12.8799218 C15.0763825,12.972932 15.2015627,13.0818972 15.3144594,13.204823 C15.443213,13.3445096 15.5103071,13.5373593 15.4987122,13.7342783 C15.4877501,13.8990657 15.4223496,14.0540626 15.314478,14.1709247 C15.063764,14.4263452 14.6726643,14.4263452 14.4219317,14.1709247 C14.0785086,13.7996648 13.5385545,13.7711064 13.1648959,14.0852493 L13.0751557,14.1709247 L11.047054,16.3644309 C10.6747146,16.7674551 10.6747146,17.4208837 11.047054,17.8239078 C11.390752,18.1959301 11.9315677,18.2245472 12.3055914,17.9097591 L12.3954119,17.8239078 L13.5944879,16.524303 C13.639788,16.4749473 13.708129,16.4599996 13.7675924,16.4864905 C14.0257696,16.6001415 14.2983952,16.6692216 14.5755018,16.6916269 L14.7840162,16.6996465 L14.8475369,16.6996465 C14.9352524,16.6991026 15.0067759,16.7756139 15.0072784,16.8705581 C15.0074397,16.9013399 14.9999745,16.9313159 14.9860022,16.9575135 L14.9603033,16.9936047 L13.2927228,18.7986115 C12.8764605,19.249702 12.3110279,19.5022015 11.7220147,19.5 C10.4940352,19.4991394 9.49921924,18.4209501 9.50000046,17.0917721 C9.50033174,16.5255945 9.68497882,15.9800615 10.0179696,15.5491904 L10.1497245,15.3931721 L12.1698791,13.204823 C12.5862903,12.7525238 13.1522441,12.4988156 13.7421693,12.5 Z M18.8490841,10.2049249 C19.6756534,11.1000677 19.7150139,12.5248976 18.9671172,13.4704867 L18.8490283,13.6086047 L16.8283482,15.7969234 C16.5847196,16.0608501 16.2883381,16.2591819 15.9630891,16.3772536 L15.7981695,16.4295332 L15.7807025,16.4295332 L15.6886429,16.4501616 L15.6378418,16.4604757 L15.5283152,16.4776593 L15.4743517,16.4776593 L15.4156123,16.4821743 L15.4156123,16.4821743 L15.3616443,16.4879735 L15.2664037,16.5 L15.145772,16.5 C15.0665847,16.4965754 14.9876392,16.4885376 14.9092518,16.4759269 L14.8126278,16.4563763 L14.8126278,16.4563763 L14.7171896,16.4329578 L14.6235303,16.4054601 C14.5901961,16.3951459 14.5552808,16.3831194 14.5219466,16.3693604 C14.4886124,16.3556015 14.4536971,16.343575 14.4203629,16.3281037 C14.3870287,16.3126324 14.3536945,16.2988735 14.3203604,16.2816899 C14.0841192,16.1631372 13.8691584,16.0001853 13.6854298,15.8003681 C13.5567435,15.6606634 13.4896845,15.4678164 13.5012919,15.2709001 C13.5115042,15.1049264 13.5769263,14.948582 13.6854298,14.8308351 C13.9360128,14.5754181 14.3269081,14.5754181 14.5775097,14.8308351 C14.9207534,15.2020899 15.4604253,15.2306479 15.8338886,14.9165093 L15.9235819,14.8308351 L16.4442239,14.2704246 L16.4569288,14.2549533 L17.9458617,12.6442287 C18.3180066,12.2412102 18.3180066,11.5877907 17.9458617,11.1847721 C17.6023434,10.812755 17.0618103,10.7841383 16.687982,11.098922 L16.5982084,11.1847721 L15.40294,12.4774895 C15.3576635,12.5268445 15.2893582,12.541792 15.2299259,12.5153015 C14.9723747,12.4012331 14.7003469,12.3317091 14.4237572,12.3088129 L14.2156144,12.300416 L14.1568889,12.300416 C14.0920435,12.3017657 14.0329647,12.2602471 14.007685,12.1955619 C13.988502,12.1471839 13.9911249,12.0929929 14.0129246,12.0479294 L14.0410192,12.0064618 L15.7061471,10.2049249 C16.5740449,9.26502503 17.9811863,9.26502503 18.8490841,10.2049249 Z" id="path-1"></path>
    </defs>
    <g id="01.-mPulse---Desktop" stroke="none" stroke-width="1" fill="none" fill-rule="evenodd">
        <g id="Case-Study---mPulse---Desktop" transform="translate(-1400.000000, -1187.000000)">
            <g id="::-Overview-::" transform="translate(0.000000, 93.000000)">
                <g id="Project-Summary" transform="translate(493.000000, 1064.000000)">
                    <g id="Share-On" transform="translate(835.000000, 0.000000)">
                        <g id="Icons" transform="translate(0.000000, 28.000000)">
                            <g id="Icons/Social-Media/24px/link" transform="translate(70.000000, 0.000000)">
                                <mask id="mask-2" fill="white">
                                    <use xlink:href="#path-1"></use>
                                </mask>
                                <use id="ic_Medium" fill="#000000" xlink:href="#path-1"></use>
                                <g id="color" mask="url(#mask-2)" fill="#B3BCBF">
                                    <rect id="Rectangle" x="0" y="0" width="30" height="30"></rect>
                                </g>
                            </g>
                        </g>
                    </g>
                </g>
            </g>
        </g>
    </g>
</svg>