<?xml version="1.0" encoding="UTF-8"?>
<svg width="26px" height="26px" viewBox="0 0 26 26" version="1.1" xmlns="http://www.w3.org/2000/svg" xmlns:xlink="http://www.w3.org/1999/xlink">
    <!-- Generator: sketchtool 63 (101010) - https://sketch.com -->
    <title>59379EE1-19CE-4EC8-9CD1-75781F68BD09</title>
    <desc>Created with sketchtool.</desc>
    <defs>
        <path d="M5.85365854,4.32926829 C5.01341463,4.32926829 4.32926829,5.01341463 4.32926829,5.85365854 L4.32926829,23.7792683 C4.32926829,24.8231707 5.17804878,25.6707317 6.22195122,25.6707317 L23.7792683,25.6707317 C24.8231707,25.6707317 25.6707317,24.8231707 25.6707317,23.7792683 L25.6707317,6.22195122 C25.6707317,5.17804878 24.8231707,4.32926829 23.7792683,4.32926829 L5.85365854,4.32926829 Z M23.7792683,27.5 L6.22195122,27.5 C4.1695122,27.5 2.5,25.8317073 2.5,23.7792683 L2.5,5.85365854 C2.5,4.00365854 4.00365854,2.5 5.85365854,2.5 L23.7792683,2.5 C25.8317073,2.5 27.5,4.1695122 27.5,6.22195122 L27.5,23.7792683 C27.5,25.8317073 25.8317073,27.5 23.7792683,27.5 L23.7792683,27.5 Z M19.9023002,11.1641615 C19.650802,11.2820513 19.3894797,11.3763631 19.1212805,11.4431673 C19.4169873,11.1454956 19.6390131,10.7731604 19.7637797,10.357599 C19.8001291,10.2387268 19.6783097,10.1355732 19.5771209,10.1994302 C19.2047857,10.4342273 18.8029781,10.611062 18.3825046,10.7230573 C18.3589266,10.7299342 18.3333838,10.7328814 18.307841,10.7328814 C18.2321951,10.7328814 18.1575316,10.7024266 18.0985867,10.6483938 C17.6525704,10.2308675 17.0788402,10 16.4825144,10 C16.2251217,10 15.9637994,10.0432263 15.7083716,10.1267315 C14.9165452,10.3880538 14.3054833,11.0816387 14.11293,11.9363395 C14.0412137,12.2566067 14.0225478,12.5778564 14.0549675,12.8912467 C14.0588971,12.9266136 14.0431785,12.951174 14.0323719,12.9639454 C14.0156709,12.9845761 13.9911105,12.9953827 13.9655677,12.9953827 L13.956726,12.9953827 C12.2237463,12.8244425 10.659742,11.9383044 9.5545254,10.5000491 C9.49754534,10.426368 9.38947972,10.4361922 9.34428864,10.5177326 C9.12815739,10.9116809 9.01321486,11.3616269 9.01321486,11.8204146 C9.01321486,12.5228411 9.27944926,13.1849887 9.74216662,13.6683368 C9.5476485,13.619216 9.36000727,13.5416053 9.18513744,13.4384517 C9.10064977,13.389331 8.99553139,13.4531879 8.99454898,13.5563415 C8.98276,14.599666 9.55943747,15.5280479 10.4219976,15.9465566 L10.3699297,15.9465566 C10.2323916,15.9465566 10.0948535,15.9328028 9.95829787,15.9052952 C9.86300364,15.8866293 9.78244563,15.9819236 9.81191807,16.080165 C10.0928887,17.0075646 10.8454184,17.6923077 11.7462928,17.8465468 C10.9986751,18.379998 10.1282556,18.6599862 9.22148679,18.6599862 L8.93855133,18.6599862 C8.85209883,18.6599862 8.77841773,18.7199135 8.75582219,18.8093133 C8.73420906,18.8977306 8.77448807,18.99106 8.84816917,19.0362511 C9.86988054,19.6669614 11.0350245,20 12.2188343,20 C13.253317,20 14.2229604,19.7819039 15.0973096,19.3525887 C15.8999424,18.9586403 16.6082635,18.3937518 17.2045893,17.6775715 C17.7596536,17.0095294 18.1938809,16.2383338 18.4944999,15.3855978 C18.781365,14.5731408 18.9336393,13.7046861 18.9336393,12.8765105 L18.9336393,12.8372139 C18.9336393,12.7036055 18.9896369,12.5788388 19.0888608,12.4943511 C19.4651257,12.1701542 19.7912874,11.7909421 20.060469,11.3626093 C20.1312029,11.250614 20.0192076,11.1091463 19.9023002,11.1641615" id="path-1"></path>
    </defs>
    <g id="01.-mPulse---Desktop" stroke="none" stroke-width="1" fill="none" fill-rule="evenodd">
        <g id="Case-Study---mPulse---Desktop" transform="translate(-1365.000000, -1187.000000)">
            <g id="::-Overview-::" transform="translate(0.000000, 93.000000)">
                <g id="Project-Summary" transform="translate(493.000000, 1064.000000)">
                    <g id="Share-On" transform="translate(835.000000, 0.000000)">
                        <g id="Icons" transform="translate(0.000000, 28.000000)">
                            <g id="Icons/Social-Media/24px/twitter" transform="translate(35.000000, 0.000000)">
                                <mask id="mask-2" fill="white">
                                    <use xlink:href="#path-1"></use>
                                </mask>
                                <use id="ic_Medium" fill="#000000" xlink:href="#path-1"></use>
                                <g id="color" mask="url(#mask-2)" fill="#B3BCBF">
                                    <rect id="Rectangle" x="0" y="0" width="30" height="30"></rect>
                                </g>
                            </g>
                        </g>
                    </g>
                </g>
            </g>
        </g>
    </g>
</svg>